<?xml version="1.0" standalone="no"?>
<!DOCTYPE svg PUBLIC "-//W3C//DTD SVG 20010904//EN"
 "http://www.w3.org/TR/2001/REC-SVG-20010904/DTD/svg10.dtd">
<svg version="1.0" xmlns="http://www.w3.org/2000/svg"
 width="951.000000pt" height="951.000000pt" viewBox="0 0 951.000000 951.000000"
 preserveAspectRatio="xMidYMid meet">
<metadata>
Created by potrace 1.14, written by Peter Selinger 2001-2017
</metadata>
<g transform="translate(0.000000,951.000000) scale(0.100000,-0.100000)"
fill="#000000" stroke="none">
<path d="M4880 8270 c0 -4 -16 -6 -35 -5 -19 2 -37 0 -39 -4 -3 -4 -24 -6 -48
-4 -80 7 -158 3 -158 -7 0 -6 -10 -7 -82 -12 -21 -2 -38 -6 -38 -10 0 -4 -9
-5 -20 -3 -11 2 -20 0 -20 -4 0 -5 -12 -7 -26 -5 -14 1 -27 -3 -30 -11 -3 -7
-14 -12 -25 -10 -10 2 -19 0 -19 -6 0 -5 -3 -8 -7 -8 -5 1 -10 1 -13 -1 -3 -1
-15 -3 -26 -5 -12 -3 -34 -10 -50 -16 -16 -7 -32 -12 -36 -11 -5 1 -8 -3 -8
-9 0 -5 -4 -8 -9 -4 -5 3 -18 -5 -28 -17 -19 -23 -34 -31 -65 -32 -10 0 -18
-6 -18 -14 0 -7 -4 -11 -9 -8 -5 3 -14 -1 -21 -9 -7 -8 -16 -12 -21 -9 -5 3
-9 -2 -9 -10 0 -9 -7 -13 -19 -11 -11 2 -25 -3 -31 -10 -6 -8 -18 -11 -26 -8
-8 3 -14 0 -14 -7 0 -6 -5 -8 -10 -5 -6 3 -13 -1 -16 -9 -3 -9 -10 -13 -15
-10 -6 3 -16 0 -24 -6 -8 -7 -15 -9 -15 -6 0 4 -9 2 -20 -4 -15 -8 -20 -8 -20
2 -1 8 -8 5 -18 -8 -10 -12 -28 -19 -44 -19 -16 1 -28 -2 -28 -7 0 -4 -3 -7
-7 -7 -22 4 -41 -3 -60 -20 -12 -11 -23 -17 -27 -14 -3 3 -11 1 -18 -4 -7 -6
-23 -9 -35 -7 -16 3 -21 0 -17 -11 4 -10 0 -13 -15 -10 -12 2 -21 -1 -21 -8 0
-8 -3 -7 -9 2 -5 7 -14 10 -20 7 -6 -4 -9 -11 -6 -16 8 -13 -22 -19 -35 -7
-10 9 -11 9 -6 0 4 -8 1 -13 -9 -13 -8 0 -18 -6 -21 -14 -3 -8 -14 -13 -25
-11 -10 2 -19 -1 -19 -7 0 -7 -5 -7 -14 1 -10 9 -15 8 -20 -4 -3 -8 -12 -15
-21 -15 -8 0 -15 -4 -15 -9 0 -6 -9 -8 -20 -6 -12 2 -24 -4 -30 -16 -6 -11
-15 -17 -20 -14 -5 3 -15 -4 -23 -15 -7 -11 -17 -17 -20 -14 -3 4 -13 -1 -22
-9 -8 -9 -25 -14 -37 -12 -21 4 -58 -27 -58 -48 0 -6 -7 -2 -15 9 -8 10 -15
15 -14 9 3 -25 -3 -36 -31 -50 -16 -9 -30 -12 -30 -8 0 4 -7 -3 -16 -15 -8
-12 -19 -20 -24 -17 -5 3 -11 1 -15 -5 -4 -6 -11 -8 -16 -4 -5 3 -8 0 -7 -8 2
-7 -3 -12 -9 -10 -7 1 -13 -2 -13 -7 0 -6 -9 -8 -20 -6 -13 2 -23 -2 -27 -12
-9 -22 -40 -53 -47 -46 -3 3 -8 -2 -12 -11 -3 -9 -10 -14 -15 -11 -4 3 -16 -6
-25 -20 -9 -13 -20 -23 -24 -20 -5 3 -12 -1 -17 -8 -4 -8 -18 -19 -31 -26 -12
-7 -20 -16 -17 -21 6 -9 -34 -36 -47 -32 -5 1 -8 -3 -8 -9 0 -5 -5 -7 -10 -4
-6 3 -14 -4 -19 -17 -6 -13 -10 -19 -10 -15 -1 4 -11 -1 -23 -12 -11 -11 -26
-17 -31 -14 -6 4 -8 0 -4 -10 4 -11 1 -17 -8 -17 -8 0 -15 -4 -15 -8 0 -5 -11
-14 -25 -20 -14 -6 -25 -16 -25 -22 0 -14 -37 -50 -44 -42 -3 3 -6 -3 -6 -12
0 -12 -5 -16 -15 -12 -8 3 -15 1 -15 -5 0 -17 -43 -69 -57 -69 -7 0 -13 -5
-13 -11 0 -14 -26 -39 -40 -39 -6 0 -8 -4 -5 -10 3 -5 2 -10 -4 -10 -5 0 -13
-9 -16 -20 -4 -11 -11 -17 -17 -14 -6 4 -9 1 -6 -7 5 -13 -27 -49 -42 -49 -5
0 -11 -11 -14 -25 -4 -14 -10 -25 -14 -25 -14 0 -53 -41 -47 -50 3 -4 -7 -15
-20 -24 -14 -9 -23 -21 -20 -26 3 -5 -6 -12 -21 -16 -17 -4 -22 -9 -14 -14 9
-6 8 -13 -6 -28 -44 -48 -46 -52 -27 -53 15 0 14 -2 -4 -11 -13 -6 -23 -17
-23 -25 0 -7 -7 -16 -16 -20 -8 -3 -13 -11 -11 -17 5 -12 -18 -38 -29 -34 -4
2 -8 -6 -10 -16 -1 -10 -8 -22 -14 -26 -7 -4 -12 -11 -12 -16 1 -5 -9 -14 -21
-21 -12 -7 -18 -12 -14 -13 4 0 3 -9 -3 -20 -8 -15 -8 -20 2 -20 9 0 9 -3 0
-12 -8 -8 -15 -8 -28 3 -16 12 -17 12 -9 -1 16 -26 15 -49 -3 -62 -9 -7 -18
-20 -20 -28 -7 -29 -44 -80 -54 -74 -6 4 -8 -1 -3 -15 4 -15 3 -21 -6 -19 -8
2 -13 -9 -14 -30 0 -18 -7 -37 -14 -41 -7 -5 -10 -14 -7 -20 4 -6 3 -11 -3
-11 -6 0 -8 -7 -5 -15 4 -8 1 -15 -6 -15 -7 0 -10 -7 -6 -15 3 -8 1 -15 -5
-15 -6 0 -7 -4 -4 -10 3 -5 2 -10 -3 -10 -5 0 -8 -13 -7 -30 1 -17 -4 -35 -12
-42 -15 -12 -32 -47 -39 -82 -2 -10 -9 -25 -16 -34 -7 -8 -13 -27 -13 -41 -1
-14 -8 -40 -17 -57 -10 -17 -19 -42 -22 -55 -3 -13 -7 -35 -10 -49 -3 -14 -12
-30 -20 -36 -12 -9 -12 -11 1 -20 14 -9 14 -12 1 -24 -8 -8 -13 -32 -13 -53 1
-21 -4 -42 -11 -48 -7 -6 -11 -19 -9 -30 2 -10 0 -19 -5 -19 -4 0 -7 -15 -6
-32 2 -21 -3 -38 -13 -45 -9 -7 -11 -13 -6 -13 13 0 12 -40 0 -60 -5 -7 -9
-30 -9 -49 -1 -20 -4 -40 -8 -46 -3 -5 -5 -22 -3 -37 2 -16 -1 -30 -5 -33 -5
-3 -4 -19 0 -37 5 -17 7 -35 4 -40 -14 -22 -27 -288 -15 -288 4 0 6 -52 6
-115 -1 -63 2 -115 6 -115 4 0 6 -19 4 -42 -2 -23 -1 -47 3 -53 11 -17 10 -55
-2 -55 -6 0 -6 -4 1 -11 6 -6 9 -18 6 -25 -3 -8 -1 -14 5 -14 6 0 9 -8 7 -17
-1 -10 0 -22 3 -28 3 -5 7 -30 8 -56 1 -26 6 -55 11 -65 6 -11 9 -31 8 -46 -1
-16 2 -28 7 -28 5 0 7 -3 5 -7 -12 -19 -15 -80 -6 -93 9 -13 10 -12 5 2 -3 10
-1 20 4 23 6 4 11 1 11 -4 2 -14 6 -30 8 -33 5 -7 13 -56 14 -90 1 -24 7 -38
15 -38 7 0 10 -4 7 -10 -3 -6 -1 -10 6 -10 9 0 9 -3 0 -14 -8 -10 -9 -16 -1
-21 5 -3 10 -15 10 -26 0 -10 5 -19 11 -19 5 0 7 -4 4 -10 -3 -5 -2 -10 4 -10
5 0 8 -9 6 -20 -2 -11 3 -27 11 -35 9 -8 11 -15 6 -15 -5 0 -9 -7 -9 -15 0 -8
4 -12 9 -9 7 5 12 -10 9 -28 0 -5 4 -8 10 -8 5 0 7 -5 4 -10 -3 -5 -1 -10 5
-10 6 0 9 -4 6 -9 -3 -5 1 -23 10 -40 20 -41 24 -63 12 -78 -6 -7 -3 -15 9
-21 10 -6 15 -13 11 -17 -3 -4 1 -15 10 -25 34 -37 41 -48 35 -54 -4 -3 -1 -6
6 -6 7 0 10 -4 6 -9 -3 -5 1 -16 9 -23 19 -19 30 -58 16 -58 -7 0 -6 -5 2 -14
8 -8 15 -10 19 -4 4 5 9 3 12 -6 3 -8 1 -17 -6 -20 -7 -2 -4 -5 5 -5 10 -1 20
-12 24 -26 3 -14 10 -25 15 -25 5 0 6 -6 3 -14 -3 -7 2 -16 11 -20 10 -3 15
-12 11 -21 -3 -10 1 -15 11 -15 9 0 14 -3 10 -6 -3 -4 1 -13 9 -21 8 -8 12
-19 9 -24 -4 -5 -1 -9 5 -9 6 0 9 -4 6 -8 -3 -5 4 -14 14 -22 10 -8 17 -17 14
-22 -3 -4 0 -8 6 -8 6 0 8 -5 4 -12 -4 -6 -3 -8 3 -5 6 4 16 0 23 -8 10 -12
10 -15 -1 -15 -9 -1 -8 -5 5 -15 11 -8 21 -25 23 -37 2 -12 8 -27 14 -34 5 -6
9 -16 8 -20 -4 -23 14 -52 30 -49 24 4 42 -8 45 -31 2 -11 11 -18 20 -18 12 2
15 -3 10 -18 -3 -11 -2 -18 3 -15 5 3 14 -3 21 -14 9 -14 9 -19 0 -19 -6 0 -8
-3 -4 -8 4 -4 13 -7 19 -7 6 0 14 -11 18 -25 4 -14 7 -21 8 -16 1 5 7 3 15 -3
8 -7 13 -22 11 -34 -4 -21 -4 -21 10 -3 14 18 15 18 15 2 0 -9 5 -14 10 -11 9
6 14 -10 13 -42 -1 -7 3 -13 8 -13 5 0 8 -6 6 -12 -1 -7 5 -13 13 -13 8 0 30
-15 47 -33 18 -19 33 -30 33 -25 0 4 5 0 11 -10 6 -9 14 -15 20 -12 5 4 13 -5
19 -19 5 -14 14 -26 19 -26 6 0 7 -8 4 -17 -6 -16 -5 -16 10 -4 11 9 17 10 18
2 1 -6 2 -15 3 -21 0 -5 5 -10 9 -10 15 1 39 -31 33 -45 -3 -8 -1 -17 5 -20 5
-4 8 -3 7 2 -5 13 6 16 30 9 20 -7 27 -17 23 -38 0 -5 6 -8 14 -8 8 0 15 -7
15 -16 0 -8 3 -13 8 -11 7 5 30 -15 35 -30 1 -5 5 -7 10 -6 7 3 11 -12 8 -29
0 -5 2 -7 7 -6 13 3 42 -14 37 -22 -3 -5 6 -7 20 -5 24 2 40 -9 40 -29 0 -5 9
-10 20 -12 11 -2 21 -7 23 -13 2 -5 9 -8 16 -5 15 6 68 -44 61 -57 -3 -4 4 -6
15 -4 26 5 52 -4 44 -16 -3 -5 0 -9 5 -9 18 0 50 -33 44 -44 -4 -7 -1 -6 8 1
19 15 49 -6 49 -36 0 -15 5 -21 18 -19 10 2 16 -2 14 -11 -3 -12 0 -12 12 -2
10 8 16 9 21 1 3 -6 11 -8 16 -5 5 4 9 0 9 -7 0 -10 2 -10 8 -1 6 9 15 8 40
-4 17 -8 32 -20 32 -25 0 -6 8 -8 18 -6 21 6 57 -16 57 -35 1 -7 6 -11 13 -9
7 1 12 -3 12 -9 0 -5 5 -7 10 -4 6 3 10 -2 10 -11 0 -10 3 -14 8 -10 4 4 7 12
7 17 0 5 3 9 8 9 4 0 11 0 17 0 5 0 7 -7 4 -15 -4 -8 -1 -15 6 -15 6 0 8 -4 5
-10 -3 -5 -2 -10 4 -10 5 0 14 7 19 16 8 15 10 15 15 -1 4 -9 11 -13 17 -10 6
3 21 -3 35 -13 14 -11 33 -19 43 -18 9 2 23 -6 31 -16 7 -11 19 -17 27 -14 7
3 20 -1 27 -9 11 -10 17 -11 26 -2 8 8 11 8 11 -2 0 -7 4 -10 9 -6 5 3 17 -5
25 -17 9 -12 16 -17 16 -10 0 17 22 10 39 -12 10 -13 16 -15 21 -6 5 8 12 7
24 -6 14 -13 20 -14 26 -5 5 9 10 10 14 2 4 -6 16 -11 27 -11 14 0 18 -4 13
-12 -5 -9 -2 -9 9 1 9 7 17 9 17 4 0 -6 12 -9 28 -8 28 2 55 -12 47 -24 -2 -4
6 -7 18 -6 28 3 48 -5 42 -15 -5 -8 3 -8 62 4 14 3 26 -1 33 -12 6 -12 9 -13
10 -3 0 11 3 11 15 1 8 -7 15 -9 15 -4 0 5 5 2 10 -6 9 -13 10 -13 10 0 1 11
4 10 15 -4 10 -14 30 -21 62 -23 78 -6 83 -7 83 -17 0 -5 9 -1 20 9 13 12 20
14 20 5 0 -6 6 -10 13 -7 8 3 20 1 28 -3 8 -5 19 -4 27 2 10 9 16 8 23 -3 5
-8 9 -10 9 -5 0 5 7 2 17 -5 13 -11 17 -11 21 -1 3 10 7 10 18 1 11 -9 14 -8
14 2 0 12 2 12 9 1 4 -8 12 -14 16 -14 4 0 12 6 16 14 5 7 9 8 9 3 0 -6 17
-11 38 -10 20 0 40 -4 44 -10 10 -14 168 -16 168 -1 0 6 4 6 9 -2 10 -16 22
-14 37 6 7 9 19 13 32 10 12 -3 23 -1 24 4 2 6 11 4 20 -5 15 -15 16 -14 22 6
4 13 9 18 13 12 8 -11 61 -14 78 -4 14 8 138 5 152 -4 6 -4 14 -3 17 2 3 5 19
7 36 6 16 -1 27 1 24 6 -3 5 2 9 10 9 9 0 16 4 16 9 0 4 12 6 28 4 65 -10 90
-9 86 2 -3 7 8 12 28 12 18 0 43 3 56 6 12 3 22 2 22 -2 0 -4 7 -8 15 -8 11 0
12 4 4 14 -9 10 -7 13 10 13 11 0 21 4 21 9 0 5 15 7 33 6 17 -2 35 2 38 7 4
6 20 11 35 12 16 1 35 5 43 10 7 5 30 9 50 10 41 3 91 21 91 34 0 5 13 8 30 6
24 -3 28 0 23 13 -4 10 -2 14 5 9 6 -3 13 -2 17 4 4 6 11 8 16 5 5 -4 9 -3 9
2 0 4 22 8 49 7 43 -1 50 2 55 22 6 21 34 28 47 11 7 -10 39 2 39 14 0 5 -5 9
-11 9 -5 0 -7 5 -4 10 11 18 38 12 31 -7 -5 -16 -5 -16 6 -2 13 15 40 29 67
35 8 1 17 8 21 14 4 7 10 11 14 11 3 -1 7 -1 9 0 20 6 37 5 37 -2 0 -5 5 -9
10 -9 6 0 9 3 9 8 -4 23 4 29 32 27 22 -2 29 1 25 11 -3 8 -1 14 5 14 6 0 7 4
4 10 -3 5 -1 10 4 10 6 0 11 7 11 15 0 8 9 15 20 15 11 0 19 -5 18 -11 -2 -6
3 -14 11 -17 8 -2 11 0 7 6 -3 6 2 18 11 28 10 10 16 20 14 23 -3 3 3 7 12 9
9 2 17 -1 17 -6 0 -5 6 -9 13 -9 9 0 12 9 9 25 -4 21 -2 23 18 17 15 -5 20 -4
16 4 -7 11 5 15 34 12 12 -1 12 0 2 7 -10 7 -10 11 3 22 12 10 15 10 15 -1 1
-8 10 -3 23 12 12 15 30 25 40 24 19 -4 23 11 5 18 -8 4 -7 6 3 6 9 1 20 9 24
19 6 15 9 14 27 -8 13 -16 19 -18 15 -8 -10 27 1 45 26 43 14 -1 30 9 43 26
11 16 24 26 27 22 4 -3 7 -1 7 5 0 7 -7 12 -16 12 -8 0 -13 4 -10 9 8 12 66
20 66 8 0 -5 7 -4 15 3 12 10 13 15 4 20 -8 6 -8 9 0 14 6 4 16 4 21 1 6 -3
10 -1 10 5 0 6 5 8 10 5 6 -4 10 -3 9 2 -4 15 13 43 22 37 5 -3 9 0 9 5 0 6 7
11 16 11 8 0 13 3 11 8 -7 12 27 37 50 36 12 -1 20 3 17 7 -3 5 2 12 11 15 14
6 14 8 -1 19 -15 11 -14 13 10 19 15 4 24 11 21 16 -4 6 1 13 9 16 9 3 16 10
16 16 0 12 30 43 30 31 0 -4 5 0 11 10 5 9 16 17 24 17 9 0 12 6 8 16 -5 14
-2 16 23 10 21 -5 25 -4 14 4 -10 6 -11 10 -3 10 7 0 12 4 10 8 -4 14 56 70
70 65 7 -3 13 0 13 6 0 6 -3 10 -7 10 -20 -3 -24 2 -13 16 7 8 15 13 19 11 4
-3 18 5 31 16 14 11 19 17 13 13 -7 -3 -13 -3 -13 0 0 8 27 36 35 35 25 -1 29
1 17 9 -20 12 11 69 35 67 12 -1 17 5 15 17 -2 9 1 17 6 17 6 0 13 11 16 25 4
14 11 23 16 20 5 -3 11 4 15 15 3 11 11 20 16 20 5 0 8 3 7 8 -2 4 5 16 15 27
9 11 17 24 17 28 -1 4 5 14 12 22 33 36 39 46 34 54 -3 5 1 11 9 15 8 3 15 12
15 21 0 8 6 14 13 12 7 -1 11 7 9 23 -2 18 0 21 6 11 8 -11 12 -10 21 8 7 11
9 21 5 21 -3 0 -1 7 6 15 7 8 9 15 4 15 -5 0 0 7 11 16 11 8 19 17 18 19 -8
13 -1 25 13 25 10 0 14 6 10 15 -3 8 -1 15 5 15 6 0 7 5 4 10 -3 6 -2 10 3 10
5 0 8 11 7 25 -2 14 1 27 6 31 5 3 9 -1 9 -8 0 -10 3 -9 10 2 6 9 5 17 -3 22
-9 6 -9 8 0 8 7 0 10 7 7 15 -4 8 -2 15 3 15 4 0 14 9 21 21 8 12 9 18 3 14
-16 -10 -13 11 4 25 8 6 14 15 13 18 -1 4 3 16 9 27 6 11 11 23 12 28 1 4 4 7
8 6 10 -1 25 30 18 41 -3 6 -1 10 5 10 6 0 9 4 5 9 -3 5 -1 12 5 16 6 4 8 10
5 15 -10 16 6 39 22 33 10 -4 14 -2 10 4 -3 5 -9 24 -12 43 -5 27 -3 31 11 26
12 -4 15 -2 10 9 -3 8 -2 15 3 15 4 0 8 6 9 13 1 6 3 25 5 41 1 15 12 38 23
51 11 13 19 30 18 39 -1 9 2 18 7 22 5 3 6 11 2 17 -11 18 -12 37 -2 37 5 0 7
11 5 25 -3 14 -1 25 4 25 5 0 7 9 5 20 -2 12 2 23 9 26 14 5 16 28 3 40 -4 4
-2 13 4 20 6 8 9 20 6 28 -4 9 2 17 14 21 14 5 17 10 11 18 -5 7 -7 21 -5 32
2 11 5 27 7 35 1 9 5 20 9 27 4 6 4 18 1 26 -3 8 0 18 5 22 6 3 9 11 6 16 -4
5 -2 9 4 9 9 0 9 59 1 80 -1 3 -1 10 0 15 2 6 4 28 6 50 2 22 6 49 8 60 2 11
5 24 5 28 1 5 5 6 10 3 11 -7 7 42 -6 73 -11 27 -10 117 2 144 5 11 3 17 -6
17 -10 0 -14 12 -13 37 2 53 3 55 13 48 6 -3 7 6 2 22 -4 16 -7 61 -6 101 0
39 -2 72 -6 72 -8 0 -3 39 5 48 3 2 0 14 -6 26 -15 27 -18 46 -8 46 14 0 6 80
-10 90 -8 5 -11 10 -6 10 5 0 3 7 -5 16 -9 12 -10 17 -1 23 6 4 9 18 6 31 -3
14 -6 34 -7 45 -1 11 -8 26 -15 33 -6 8 -10 25 -8 39 3 14 -1 32 -9 39 -8 8
-12 27 -10 44 2 17 0 30 -4 30 -4 0 -8 7 -9 15 -1 8 -3 22 -4 30 -1 8 -5 15
-9 15 -9 0 -4 53 6 70 3 5 -1 13 -9 16 -9 3 -14 10 -11 14 3 4 -2 11 -11 14
-8 3 -12 10 -9 16 3 5 1 10 -5 10 -7 0 -10 7 -7 15 4 8 2 17 -3 20 -4 3 -7 21
-6 40 2 26 -1 36 -15 40 -13 4 -17 15 -15 40 2 19 0 35 -3 35 -4 0 -15 14 -24
30 -10 17 -15 30 -11 30 5 0 3 5 -3 11 -6 6 -9 18 -6 25 3 8 0 14 -5 14 -6 0
-9 9 -7 20 2 12 -5 26 -18 35 -12 8 -18 15 -13 15 5 0 3 7 -4 15 -7 8 -9 15
-5 15 4 0 2 6 -4 13 -6 8 -7 18 -3 22 4 5 2 5 -5 1 -7 -3 -14 2 -18 14 -3 11
-10 20 -15 20 -5 0 -7 9 -5 20 2 12 -5 30 -16 41 -11 11 -17 24 -13 30 3 6 -2
19 -13 31 -10 11 -17 22 -15 24 6 11 1 24 -10 21 -8 -1 -13 7 -12 20 1 13 -2
21 -6 18 -4 -2 -12 7 -18 20 -7 14 -16 25 -22 25 -6 0 -8 5 -5 10 3 6 1 10 -4
10 -6 0 -10 3 -9 8 1 4 -6 19 -16 34 -10 15 -15 31 -12 37 4 5 -3 12 -14 16
-11 4 -18 10 -15 14 2 5 -4 18 -15 31 -10 12 -16 28 -13 36 4 10 0 12 -13 8
-11 -4 -16 -4 -12 1 4 4 -2 16 -14 26 -11 11 -18 19 -15 19 3 0 -4 11 -17 25
-13 14 -29 39 -36 55 -7 17 -19 30 -26 30 -8 0 -14 7 -14 15 0 9 -7 18 -15 21
-8 4 -15 15 -15 27 0 11 -3 18 -6 15 -8 -9 -81 66 -89 91 -3 11 -18 27 -33 34
-15 7 -26 19 -24 25 1 7 -2 12 -8 12 -6 0 -9 4 -8 9 3 9 -80 91 -93 91 -4 0
-11 9 -14 21 -4 11 -9 18 -12 16 -5 -6 -51 34 -138 118 -67 66 -115 104 -129
104 -15 -1 -26 25 -13 33 9 6 9 8 0 8 -6 0 -14 -4 -18 -10 -3 -5 -12 -7 -20
-4 -8 4 -12 10 -9 15 3 5 -1 9 -8 9 -10 0 -10 2 -1 8 8 5 9 13 3 22 -9 13 -10
13 -10 0 -1 -12 -3 -11 -11 3 -6 9 -14 15 -19 12 -5 -3 -20 6 -35 19 -18 17
-22 26 -13 30 7 3 1 3 -14 0 -18 -4 -28 -2 -28 6 0 6 -4 8 -10 5 -5 -3 -10 1
-10 10 0 9 -4 13 -10 10 -5 -3 -10 2 -10 12 0 14 -2 15 -9 4 -6 -9 -11 -10
-15 -2 -4 6 -14 11 -23 11 -19 0 -64 46 -54 56 3 4 -4 4 -16 1 -13 -3 -23 -1
-23 4 0 13 -59 41 -71 33 -6 -3 -17 2 -24 12 -8 11 -15 15 -15 10 0 -5 -9 -1
-20 9 -11 10 -20 15 -20 12 0 -4 -9 1 -19 11 -36 32 -51 43 -51 36 0 -3 -7 -1
-15 6 -8 7 -15 10 -15 6 0 -4 -10 0 -23 9 -13 8 -27 12 -30 8 -4 -3 -7 -1 -7
6 0 7 -4 10 -9 6 -5 -3 -12 -1 -16 5 -4 6 -10 8 -15 5 -5 -3 -18 3 -29 14 -11
11 -22 17 -25 13 -3 -3 -6 0 -6 7 0 7 -5 9 -11 5 -8 -4 -9 1 -4 17 3 13 3 19
-2 14 -4 -6 -15 -10 -23 -10 -8 1 -20 -2 -26 -7 -7 -5 -17 -2 -24 7 -7 8 -16
13 -20 10 -5 -3 -11 -1 -15 5 -3 5 2 10 12 11 12 1 10 3 -7 8 -14 4 -30 4 -36
0 -12 -10 -74 11 -74 24 0 4 -5 5 -10 2 -6 -3 -17 1 -26 9 -8 9 -22 17 -30 17
-21 2 -28 4 -39 10 -5 3 -17 5 -25 4 -18 -1 -40 17 -33 28 4 6 -5 9 -24 6 -3
0 -10 6 -15 15 -5 9 -13 14 -19 11 -5 -4 -9 -1 -9 5 0 6 -4 9 -9 5 -5 -3 -16
1 -24 9 -8 8 -17 12 -21 9 -3 -4 -6 -1 -6 6 0 7 -4 10 -8 7 -5 -3 -15 6 -23
20 -8 16 -19 24 -31 21 -9 -3 -18 -1 -20 3 -2 5 -10 10 -18 12 -8 2 -21 9 -28
16 -8 7 -23 10 -33 7 -13 -5 -19 -1 -19 10 0 9 -4 13 -10 10 -5 -3 -10 -1 -10
5 0 6 -3 9 -8 7 -4 -3 -25 3 -46 14 -22 10 -41 17 -44 14 -2 -2 -21 3 -41 10
-20 8 -47 17 -61 19 -14 3 -25 5 -25 6 0 1 -20 4 -44 6 -25 3 -50 9 -57 15 -8
7 -13 6 -16 -2 -3 -8 -9 -9 -18 -4 -12 8 -51 15 -87 18 -7 0 -13 3 -13 7 0 4
-7 7 -15 7 -8 0 -15 -3 -15 -7z m-338 -675 c5 -6 8 -4 8 5 0 9 8 3 19 -14 19
-28 18 -62 0 -50 -5 3 -9 0 -9 -6 0 -6 -4 -8 -10 -5 -5 3 -23 -8 -40 -25 -17
-17 -35 -28 -40 -25 -6 4 -13 -1 -16 -9 -3 -9 -10 -13 -15 -11 -5 3 -16 -3
-26 -14 -9 -11 -20 -18 -24 -15 -5 2 -13 -5 -19 -16 -6 -11 -15 -18 -20 -15
-4 3 -18 -7 -29 -21 -12 -15 -21 -23 -21 -19 0 5 -9 0 -20 -10 -10 -9 -18 -20
-17 -24 1 -4 -17 -25 -40 -48 -43 -42 -73 -91 -73 -118 0 -8 -4 -15 -9 -15
-10 0 -24 -36 -24 -62 0 -10 -3 -18 -8 -18 -15 0 -42 -63 -46 -105 -8 -111
-10 -166 -4 -170 4 -2 7 -42 6 -89 0 -47 2 -86 6 -86 4 0 6 -8 4 -17 -1 -10 0
-22 4 -28 6 -11 12 -32 13 -52 1 -7 5 -13 9 -13 4 0 6 -9 4 -20 -2 -11 1 -20
6 -20 6 0 8 -4 4 -9 -3 -5 2 -17 11 -25 8 -9 13 -16 9 -16 -3 0 2 -15 12 -32
9 -18 18 -37 18 -43 1 -5 6 -9 13 -8 10 3 17 -16 13 -39 0 -4 10 -15 24 -24
14 -9 23 -19 21 -23 -2 -3 21 -29 50 -58 30 -29 54 -49 54 -45 0 3 7 -4 16
-16 8 -12 19 -20 23 -18 4 3 13 -4 21 -14 8 -10 17 -17 22 -14 4 3 8 0 8 -6 0
-6 4 -9 9 -6 5 3 12 -1 15 -10 4 -9 9 -14 12 -11 4 3 12 1 19 -6 6 -7 23 -21
38 -31 14 -11 23 -24 20 -29 -3 -4 4 -11 16 -14 15 -4 20 -11 17 -28 -2 -13
-1 -26 2 -30 9 -9 10 -265 1 -265 -4 0 -6 -17 -4 -37 1 -21 -4 -43 -11 -51 -8
-7 -14 -10 -14 -6 0 3 -6 1 -14 -5 -10 -8 -16 -9 -21 -1 -3 6 -10 8 -15 5 -5
-3 -11 4 -15 15 -3 11 -11 20 -16 20 -6 0 -7 5 -4 10 3 6 2 10 -2 10 -5 0 -29
31 -53 70 -25 38 -48 70 -52 70 -5 0 -8 7 -8 15 0 8 -4 15 -9 15 -5 0 -16 15
-24 33 -9 18 -24 42 -34 54 -29 34 -46 60 -44 68 1 3 -9 16 -23 29 -14 12 -26
25 -26 29 0 4 -9 17 -20 29 -10 12 -17 25 -14 29 2 4 -5 13 -16 19 -11 6 -19
14 -17 18 1 4 -8 18 -20 31 -12 13 -20 28 -17 33 3 4 -2 11 -10 14 -9 3 -14
10 -11 14 4 7 -4 19 -45 67 -5 7 -10 16 -10 21 0 4 -9 18 -21 30 -11 12 -17
27 -14 32 4 6 -1 13 -9 16 -9 3 -13 10 -10 15 3 5 0 9 -6 9 -6 0 -9 4 -6 8 3
5 -3 22 -13 38 -10 16 -17 37 -15 47 1 9 -2 17 -7 17 -6 0 -8 4 -4 9 3 5 0 13
-6 16 -5 4 -8 13 -5 21 3 8 1 14 -4 14 -5 0 -7 9 -5 20 2 11 0 22 -4 24 -4 3
-7 24 -6 46 1 22 -2 43 -7 46 -4 3 -5 10 -2 16 10 16 12 98 2 104 -5 3 -5 11
-1 17 4 7 8 24 9 40 1 15 3 29 4 32 1 3 4 19 5 35 1 17 4 33 5 38 1 4 2 10 1
15 0 4 3 7 8 7 5 0 8 11 6 25 -1 14 2 25 7 25 5 0 6 5 3 10 -3 6 -1 10 5 10 6
0 9 4 6 9 -4 5 -1 11 4 13 6 2 13 12 15 23 2 11 4 20 5 20 1 0 3 9 5 20 2 11
10 24 17 30 7 5 21 27 30 47 19 40 27 51 100 127 26 27 44 51 41 55 -4 3 -2 6
4 6 6 0 31 20 56 44 25 25 48 42 51 39 3 -4 6 1 6 10 0 15 11 22 33 18 4 0 7
4 7 10 0 5 5 7 10 4 6 -3 13 1 16 9 3 9 14 16 24 16 10 0 26 7 34 16 9 8 16
12 16 8 0 -3 6 -1 13 5 8 6 17 8 20 4 4 -3 7 -1 7 5 0 7 3 11 8 10 4 0 14 1
22 5 45 17 61 18 72 2z m543 -6 c6 -4 20 -5 33 -4 12 1 22 -2 22 -7 0 -5 4 -7
9 -4 5 4 11 1 13 -4 2 -6 13 -12 26 -13 12 0 22 -5 22 -10 0 -4 5 -5 10 -2 6
3 10 2 10 -3 0 -11 76 -53 82 -46 3 2 15 -9 28 -26 13 -16 29 -30 36 -30 8 0
14 -5 14 -10 0 -6 8 -14 18 -17 18 -7 48 -33 37 -33 -5 0 18 -27 80 -94 11
-11 19 -24 18 -27 -1 -3 11 -20 27 -37 16 -18 26 -32 23 -32 -3 0 7 -16 21
-35 15 -19 24 -35 20 -35 -3 0 -1 -7 6 -15 7 -8 9 -15 4 -15 -5 0 -1 -5 8 -11
10 -5 15 -16 12 -24 -4 -8 -1 -15 5 -15 6 0 10 -3 9 -7 -1 -5 3 -17 9 -28 6
-11 9 -28 8 -37 -2 -10 0 -20 5 -23 4 -2 6 -18 4 -35 -2 -16 0 -30 4 -30 4 0
7 -38 7 -85 0 -47 2 -85 6 -85 3 0 6 -7 6 -15 0 -8 -4 -15 -8 -15 -4 0 -7 -25
-6 -55 2 -30 0 -55 -4 -55 -4 0 -6 -11 -3 -25 2 -14 0 -25 -5 -25 -5 0 -10 -8
-10 -17 0 -16 -6 -48 -11 -63 -1 -3 -2 -8 -1 -12 0 -5 -4 -8 -10 -8 -6 0 -9
-6 -7 -12 3 -7 -4 -21 -13 -32 -10 -10 -16 -23 -13 -28 3 -4 0 -8 -5 -8 -6 0
-11 -5 -11 -12 0 -6 -6 -19 -14 -27 -8 -9 -16 -23 -18 -31 -2 -8 -11 -23 -21
-32 -10 -9 -20 -23 -21 -31 -1 -9 -16 -29 -34 -45 -18 -17 -31 -34 -30 -39 3
-9 -9 -24 -52 -71 -14 -14 -24 -27 -23 -29 6 -8 -10 -32 -18 -27 -5 3 -9 -2
-9 -10 0 -9 -5 -16 -10 -16 -6 0 -9 -3 -8 -7 4 -14 -27 -53 -41 -53 -8 0 -12
-3 -8 -6 3 -4 1 -12 -6 -20 -28 -32 -37 -44 -32 -44 3 0 -3 -8 -12 -19 -10
-10 -28 -31 -40 -47 -12 -16 -31 -40 -42 -54 -30 -37 -34 -42 -55 -75 -44 -68
-67 -76 -97 -34 -11 16 -16 29 -10 29 5 0 7 10 4 23 -7 31 -11 200 -4 212 3 6
6 17 6 25 1 19 40 82 47 75 3 -3 11 1 18 10 7 8 19 15 26 15 8 0 14 5 14 10 0
6 9 10 20 10 11 0 20 5 20 10 0 6 9 10 21 10 11 0 17 5 14 10 -3 6 -2 10 4 10
13 0 166 149 166 161 0 6 5 13 12 17 6 4 13 13 15 21 2 8 13 25 26 39 12 14
22 31 22 38 0 8 4 14 10 14 5 0 7 7 4 15 -4 8 -2 15 3 15 12 0 35 49 28 60 -3
4 2 11 11 14 8 3 12 11 9 16 -4 6 -1 17 5 25 6 8 9 19 5 25 -3 5 -2 10 2 10 5
0 10 10 11 23 4 55 8 83 13 92 3 6 5 40 4 78 0 37 3 67 8 67 4 0 5 6 0 13 -10
16 -10 39 0 54 4 6 4 14 -1 17 -5 3 -8 19 -7 36 1 16 -1 30 -6 30 -4 0 -6 9
-4 20 2 11 -1 20 -7 20 -5 0 -8 7 -5 15 4 8 2 17 -4 20 -5 4 -7 10 -4 15 3 5
1 11 -5 15 -6 4 -8 11 -5 16 4 5 1 9 -5 9 -6 0 -9 4 -6 9 3 5 -1 14 -9 21 -7
6 -11 18 -8 26 3 7 -2 17 -11 20 -9 3 -13 10 -10 15 3 5 0 9 -6 9 -6 0 -8 5
-5 10 3 6 1 10 -5 10 -6 0 -9 4 -5 9 3 5 -6 18 -20 29 -13 11 -22 22 -19 25 3
3 0 15 -6 27 -6 12 -14 19 -17 16 -3 -2 -32 22 -64 55 -32 33 -59 57 -59 52 0
-4 -7 3 -16 15 -8 12 -20 20 -25 17 -5 -4 -9 -2 -9 3 0 5 -18 17 -40 27 -22
10 -40 22 -40 27 0 5 -4 6 -10 3 -5 -3 -10 -1 -10 5 0 6 -4 8 -10 5 -5 -3 -10
-1 -10 5 0 6 -4 9 -9 6 -5 -3 -11 1 -15 9 -3 8 -11 15 -19 15 -7 0 -18 5 -25
12 -8 8 -6 15 9 29 20 17 34 19 54 8z m-1645 -551 c0 -4 0 -11 -1 -14 0 -4 5
-11 13 -15 7 -5 8 -9 3 -9 -7 0 -10 -45 -10 -122 1 -68 -3 -128 -7 -135 -5 -6
-4 -14 2 -18 8 -5 8 -11 0 -20 -7 -8 -9 -19 -5 -25 3 -5 1 -10 -4 -10 -6 0
-10 -3 -10 -7 4 -25 -6 -43 -46 -86 -25 -26 -48 -47 -50 -47 -3 0 -30 -25 -61
-55 -30 -31 -58 -54 -62 -52 -4 3 -17 -6 -30 -19 -12 -13 -21 -24 -18 -24 2 0
-34 -39 -80 -87 -102 -107 -114 -120 -114 -132 0 -5 -7 -12 -16 -15 -8 -3 -13
-10 -9 -15 3 -5 -4 -12 -15 -16 -20 -6 -46 -43 -42 -57 1 -5 -3 -8 -8 -8 -6 0
-10 -6 -10 -13 0 -7 -9 -19 -19 -27 -11 -7 -18 -17 -15 -22 3 -4 0 -8 -5 -8
-6 0 -11 -6 -11 -14 0 -7 -12 -25 -26 -40 -15 -14 -23 -26 -19 -26 5 0 1 -8
-8 -18 -10 -10 -14 -22 -10 -25 3 -4 2 -7 -4 -7 -6 0 -13 -14 -17 -31 -4 -20
-10 -28 -18 -23 -7 5 -9 2 -6 -8 4 -8 -2 -21 -12 -28 -11 -8 -17 -17 -14 -21
2 -4 -4 -16 -14 -26 -11 -10 -18 -28 -17 -41 1 -12 -4 -27 -11 -33 -7 -6 -10
-17 -7 -25 3 -8 0 -14 -7 -14 -6 0 -8 -4 -5 -10 3 -5 1 -10 -4 -10 -6 0 -11
-7 -11 -16 0 -8 -5 -12 -11 -8 -8 4 -9 0 -4 -15 4 -13 2 -21 -5 -21 -6 0 -8
-4 -5 -10 3 -5 2 -10 -3 -10 -5 0 -8 -11 -7 -25 2 -18 -2 -25 -13 -25 -15 0
-15 -2 -2 -10 13 -9 13 -11 0 -20 -8 -5 -10 -10 -5 -10 6 0 4 -4 -3 -9 -7 -4
-14 -20 -16 -34 -1 -15 -5 -30 -9 -33 -3 -3 -3 -12 0 -20 3 -8 0 -14 -6 -14
-6 0 -9 -10 -7 -22 1 -12 -3 -28 -9 -35 -7 -7 -11 -26 -10 -43 2 -20 -3 -34
-11 -37 -11 -4 -12 -9 -3 -19 6 -8 7 -14 2 -14 -5 0 -10 -11 -11 -25 -3 -45
-5 -55 -12 -55 -4 0 -6 -18 -5 -40 1 -31 -4 -44 -24 -62 -14 -13 -29 -22 -33
-20 -5 1 -8 -1 -8 -5 0 -5 -32 -8 -71 -7 -38 0 -72 -3 -74 -7 -5 -7 -97 -4
-134 5 -23 5 -55 40 -56 61 0 6 4 13 9 17 6 4 12 35 13 70 5 88 10 163 13 163
3 0 11 37 14 63 1 13 7 26 13 30 5 4 9 18 8 32 -1 14 2 28 8 31 5 4 10 21 11
38 0 17 4 31 9 31 4 0 5 5 2 10 -4 6 -1 17 5 25 7 8 9 15 5 15 -4 0 -3 6 2 13
5 6 9 19 8 27 0 8 6 21 13 29 7 7 10 21 7 29 -3 8 -1 18 4 21 5 4 11 13 13 21
2 8 9 21 16 28 7 8 10 17 7 22 -3 5 -1 11 4 15 5 3 8 14 6 25 -2 11 1 20 6 20
6 0 7 5 4 10 -3 6 -1 10 4 10 6 0 10 3 9 8 -1 4 3 17 10 28 6 12 8 24 5 28 -3
3 -1 6 6 6 7 0 10 4 7 9 -4 5 -2 11 3 13 5 1 11 10 13 18 2 8 6 18 11 21 4 3
10 16 12 29 2 13 9 26 14 29 5 3 16 23 24 44 9 20 20 37 25 37 9 0 22 33 21
54 -1 5 4 12 9 15 16 10 61 88 55 95 -3 3 2 8 11 12 9 3 16 12 16 20 0 8 7 14
16 14 8 0 12 5 9 10 -3 6 -1 10 6 10 7 0 10 3 6 6 -6 7 16 36 56 72 15 14 25
27 23 30 -4 3 20 35 52 68 7 8 10 14 5 14 -4 0 4 11 20 24 15 13 27 28 27 35
0 6 3 11 8 11 4 0 38 29 75 65 37 36 65 65 61 65 -4 0 4 9 17 20 13 11 47 40
74 65 28 24 68 60 90 80 22 19 45 35 50 35 6 0 18 8 27 18 26 27 46 42 58 42
5 0 10 3 10 8 0 4 16 16 35 26 19 11 35 23 35 28 0 5 5 6 10 3 6 -3 10 -1 10
4 0 6 7 11 15 11 8 0 15 5 15 10 0 6 6 10 14 10 7 0 25 6 39 13 27 14 77 18
77 5z m1431 -21 c14 -2 41 -11 59 -20 18 -10 39 -17 47 -17 7 0 13 -5 13 -11
0 -5 5 -7 10 -4 6 3 10 1 10 -5 0 -6 11 -15 25 -22 13 -6 22 -15 19 -19 -3 -5
0 -9 6 -9 6 0 9 -4 6 -8 -3 -5 4 -19 15 -31 19 -20 29 -46 31 -78 1 -7 5 -13
9 -13 8 0 7 -19 -3 -35 -3 -5 -5 -29 -3 -52 1 -24 -2 -43 -7 -43 -4 0 -7 -3
-6 -7 1 -5 -4 -19 -12 -33 -8 -14 -15 -31 -16 -37 -3 -16 -30 -44 -37 -37 -3
3 -8 -4 -12 -15 -3 -12 -12 -21 -19 -21 -7 0 -25 -9 -38 -20 -14 -10 -28 -16
-32 -13 -3 3 -6 2 -6 -3 0 -5 -29 -9 -64 -8 -36 0 -63 -3 -60 -8 3 -4 -4 -8
-16 -8 -12 0 -19 3 -16 8 2 4 -9 8 -25 8 -16 1 -29 -3 -29 -10 0 -6 -5 -4 -10
4 -5 8 -18 16 -30 16 -11 1 -22 2 -25 3 -3 0 -6 0 -7 -1 -2 -1 -16 10 -32 25
-16 15 -31 25 -34 22 -3 -3 -12 4 -19 15 -8 11 -19 18 -24 15 -5 -4 -9 -3 -10
2 -2 27 -9 43 -25 61 -16 20 -20 30 -27 89 -1 12 -6 25 -10 29 -3 4 -3 12 1
18 10 16 9 30 -3 38 -6 5 -5 8 3 8 7 0 11 4 7 9 -3 5 -1 12 5 16 6 4 8 11 5
16 -4 5 -1 9 5 9 7 0 10 6 7 13 -2 6 4 19 14 28 10 8 19 22 21 29 4 19 21 39
30 34 3 -2 14 3 22 12 9 8 16 12 16 7 0 -4 7 1 16 12 8 11 17 19 19 18 3 -1
19 3 37 10 18 6 36 10 41 9 4 -1 7 2 7 6 0 8 99 7 151 -1z m1389 -33 c0 3 12
-6 27 -20 14 -13 28 -22 30 -20 3 2 13 -3 24 -12 11 -9 25 -17 32 -17 7 -1 11
-6 10 -11 -2 -10 73 -59 79 -52 2 2 24 -18 50 -44 26 -27 51 -48 56 -48 5 0
19 -13 32 -30 13 -16 29 -30 37 -30 7 0 18 -10 23 -22 5 -13 9 -19 9 -15 1 9
79 -69 101 -101 8 -12 20 -22 26 -22 6 0 14 -9 17 -21 3 -12 10 -18 16 -15 5
4 12 -3 16 -14 3 -11 11 -20 16 -20 6 0 8 -4 4 -9 -3 -5 5 -17 17 -26 13 -8
23 -19 23 -24 0 -5 8 -18 17 -28 46 -48 56 -62 52 -66 -2 -2 7 -16 20 -30 14
-15 23 -27 21 -27 -3 0 5 -11 16 -24 12 -13 20 -27 20 -30 -1 -4 4 -13 11 -20
31 -33 46 -55 41 -60 -4 -3 -1 -6 6 -6 7 0 10 -4 6 -9 -3 -5 -1 -12 5 -16 6
-4 8 -11 5 -16 -4 -5 1 -12 9 -15 9 -3 16 -11 16 -18 0 -6 9 -18 19 -25 11 -8
17 -20 14 -28 -3 -7 0 -13 7 -13 6 0 8 -4 5 -10 -3 -5 -1 -10 5 -10 6 0 8 -4
5 -10 -3 -5 -2 -10 4 -10 6 0 8 -7 5 -15 -4 -8 1 -17 10 -21 12 -5 43 -80 37
-92 -1 -1 5 -10 14 -18 8 -9 15 -24 15 -35 0 -10 4 -19 8 -19 4 0 8 -10 9 -22
1 -11 6 -24 11 -27 5 -3 8 -14 6 -23 -1 -10 1 -18 6 -18 7 0 11 -12 25 -62 4
-15 5 -18 5 -23 0 -3 6 -20 14 -39 8 -19 12 -37 8 -40 -3 -3 0 -6 6 -6 6 0 9
-7 6 -15 -4 -8 -2 -15 3 -15 5 0 10 -9 11 -20 4 -42 6 -50 12 -50 7 0 9 -9 11
-57 1 -16 5 -33 10 -39 7 -9 14 -45 24 -124 2 -14 4 -25 5 -25 1 0 3 -13 5
-30 1 -16 3 -30 5 -30 1 0 3 -24 4 -54 2 -44 -2 -59 -21 -79 -13 -14 -23 -28
-23 -32 0 -3 -19 -5 -42 -2 -24 2 -75 5 -115 6 -41 1 -78 8 -87 15 -9 8 -16
11 -16 7 0 -10 -36 28 -37 39 -1 6 -6 25 -11 43 -8 24 -8 32 1 32 7 1 5 6 -4
13 -9 7 -14 22 -13 34 2 12 -1 25 -6 28 -7 4 -6 13 0 26 8 15 7 21 -3 25 -8 3
-14 15 -13 27 1 12 -4 31 -11 43 -7 11 -10 23 -7 26 3 4 -1 19 -9 35 -8 15
-12 33 -10 40 2 6 0 14 -6 17 -6 4 -8 13 -4 21 3 9 -1 15 -10 15 -12 0 -15 8
-12 29 2 20 -3 35 -16 47 -10 9 -16 21 -13 26 3 5 0 15 -6 23 -7 8 -10 15 -6
15 4 0 -1 11 -9 24 -15 22 -26 55 -27 84 -1 6 -5 12 -10 12 -4 0 -8 7 -8 15 0
8 -5 15 -11 15 -5 0 -8 4 -4 9 3 5 -2 17 -11 25 -8 9 -12 16 -8 16 3 0 1 6 -5
13 -6 8 -8 17 -4 20 3 4 -1 7 -10 7 -11 0 -15 7 -12 20 2 12 -2 23 -10 26 -7
3 -12 14 -10 25 2 10 0 19 -6 19 -5 0 -9 7 -9 16 0 10 -6 14 -15 10 -9 -3 -15
0 -15 9 0 8 -5 15 -12 15 -6 0 -9 3 -5 6 9 9 -21 64 -35 64 -6 0 -8 3 -5 6 8
9 -28 60 -71 101 -18 18 -30 37 -27 43 4 6 1 9 -7 8 -7 -2 -12 2 -11 8 1 7
-11 22 -27 34 -17 13 -30 29 -30 36 0 8 -7 14 -17 14 -9 0 -13 3 -10 7 4 3
-13 25 -38 48 -25 24 -45 48 -45 55 0 8 -3 11 -6 8 -3 -4 -25 14 -48 38 -24
24 -47 44 -52 44 -5 0 -16 10 -24 21 -8 12 -19 26 -25 30 -52 46 -81 69 -89
69 -4 0 -6 7 -2 15 3 8 1 15 -5 15 -6 0 -7 5 -4 10 3 6 1 10 -4 10 -6 0 -10 3
-10 8 1 4 0 10 -1 15 -1 4 -4 12 -5 17 -1 6 -4 11 -5 13 -7 7 -4 189 2 193 5
3 5 11 1 17 -10 16 -11 77 -1 77 4 0 8 5 8 11 0 21 33 38 52 28 10 -5 18 -8
18 -5z m-2439 -1221 c7 -13 16 -23 21 -23 15 0 34 -23 33 -40 -1 -8 5 -30 12
-47 9 -23 10 -33 2 -33 -6 0 -9 -7 -5 -15 3 -8 1 -15 -5 -15 -6 0 -7 -4 -4
-10 3 -5 1 -10 -5 -10 -6 0 -9 -4 -6 -9 3 -5 -1 -14 -9 -21 -8 -7 -13 -16 -10
-20 2 -4 -5 -17 -16 -29 -11 -12 -18 -25 -15 -30 3 -5 0 -11 -7 -14 -6 -2 -23
-28 -37 -56 -14 -28 -28 -51 -32 -51 -5 0 -8 -7 -8 -15 0 -8 -9 -23 -19 -32
-11 -9 -18 -20 -15 -25 3 -4 0 -8 -6 -8 -7 0 -9 -7 -6 -15 3 -9 -1 -18 -9 -21
-8 -4 -12 -10 -9 -15 3 -5 2 -9 -3 -9 -4 0 -14 -13 -21 -29 -7 -16 -21 -39
-32 -51 -11 -12 -17 -27 -14 -31 3 -5 0 -9 -7 -9 -7 0 -10 -3 -6 -6 3 -4 -8
-27 -24 -51 -17 -24 -32 -52 -33 -61 -2 -9 -8 -18 -14 -20 -7 -2 -10 -8 -6
-13 3 -5 1 -9 -4 -9 -5 0 -12 -8 -14 -17 -8 -32 -11 -38 -25 -51 -7 -8 -11
-18 -7 -23 3 -5 -2 -12 -10 -15 -9 -3 -14 -10 -11 -14 3 -4 -5 -19 -16 -34
-11 -14 -17 -26 -13 -26 22 0 -16 -20 -44 -24 -32 -3 -38 4 -33 42 1 6 -2 12
-7 12 -5 0 -8 21 -7 48 1 26 -1 51 -4 57 -13 24 -14 600 -1 613 1 1 3 6 4 11
0 5 11 18 24 29 12 11 22 24 22 31 0 6 4 11 9 11 4 0 26 17 47 37 21 20 39 36
39 35 0 -1 10 1 23 4 12 4 22 10 22 15 0 5 3 8 8 7 4 -1 27 9 52 21 25 13 47
23 49 22 2 -2 7 2 11 8 3 6 17 14 30 16 13 2 27 10 31 16 4 6 12 8 18 5 6 -4
11 -2 11 4 0 6 4 9 9 5 6 -3 15 0 22 8 20 21 67 15 80 -10z m2022 2 c15 1 27
-2 27 -7 0 -5 4 -7 9 -3 5 3 12 1 16 -5 4 -6 10 -8 15 -5 5 3 11 1 15 -5 4 -6
11 -8 16 -5 5 4 9 1 9 -5 0 -6 5 -8 10 -5 6 3 10 1 10 -5 0 -6 12 -16 28 -23
15 -6 32 -18 37 -25 6 -7 23 -15 37 -16 15 -2 33 -9 41 -17 8 -8 32 -27 52
-44 69 -56 84 -74 80 -95 -2 -11 0 -20 4 -20 10 0 10 0 13 -327 2 -155 -1
-263 -6 -263 -5 0 -6 -3 -3 -6 3 -4 2 -15 -4 -25 -5 -11 -6 -19 -2 -19 8 0 8
-96 0 -135 -4 -22 -37 -34 -37 -13 0 10 -3 9 -10 -2 -8 -13 -10 -12 -10 3 0
10 -7 20 -15 23 -8 4 -12 10 -9 15 3 5 1 9 -4 9 -10 0 -38 60 -34 73 1 4 -5 7
-14 7 -8 0 -12 5 -9 10 3 6 1 10 -5 10 -7 0 -10 5 -8 12 3 7 -6 28 -19 46 -12
19 -20 38 -17 43 3 5 -1 12 -9 15 -8 3 -22 23 -32 45 -10 21 -22 39 -27 39 -4
0 -7 3 -6 8 4 12 -24 72 -34 72 -5 0 -7 4 -4 9 3 5 -1 12 -10 15 -8 3 -12 10
-9 16 3 5 1 10 -5 10 -6 0 -8 5 -5 10 3 6 -1 13 -10 16 -9 4 -14 13 -11 21 4
8 -3 17 -17 23 -12 5 -19 9 -14 9 4 1 0 16 -10 34 -9 17 -16 35 -16 38 1 3 -9
18 -23 34 -13 15 -24 32 -24 36 0 5 -9 19 -20 31 -10 13 -18 26 -17 29 1 3 -4
13 -11 22 -8 9 -11 21 -8 26 4 5 -1 14 -9 18 -17 10 -26 39 -29 93 -2 38 13
90 26 90 4 0 8 7 8 15 0 8 7 15 15 15 8 0 14 4 13 9 -2 5 1 9 5 10 4 0 15 8
24 16 9 9 19 12 22 8 3 -5 18 -9 34 -8z m-1760 -972 c4 -6 15 -10 24 -9 9 2
27 -7 40 -18 41 -38 113 -83 113 -70 0 3 8 -3 18 -14 9 -12 24 -22 32 -24 8
-2 21 -11 29 -21 7 -10 19 -16 25 -14 7 3 18 -4 25 -14 6 -11 16 -17 21 -14 5
3 13 -3 19 -12 6 -10 11 -14 11 -10 0 5 15 -2 33 -15 17 -13 37 -23 42 -23 6
0 9 -8 7 -18 -2 -9 2 -17 8 -17 6 0 8 -11 6 -25 -3 -14 -2 -25 2 -25 4 0 7
-101 7 -225 0 -124 -3 -225 -7 -225 -5 0 -8 -6 -8 -13 0 -16 -31 -42 -50 -42
-8 0 -18 -4 -22 -10 -5 -6 -8 -6 -8 2 0 8 -9 9 -30 3 -20 -6 -30 -5 -30 2 0 7
-4 7 -12 1 -7 -5 -77 -9 -155 -8 -79 0 -143 -2 -143 -5 0 -3 -16 -5 -35 -6
-19 0 -35 3 -35 8 0 13 -30 9 -31 -4 0 -10 -2 -10 -6 0 -2 6 -10 9 -16 5 -7
-4 -79 -8 -162 -9 -82 -1 -160 -4 -172 -7 -13 -3 -25 -1 -29 4 -3 5 -14 7 -25
4 -11 -4 -19 -2 -19 5 0 6 -4 9 -9 6 -14 -9 -24 24 -26 77 0 33 3 47 13 47 7
0 11 4 8 9 -3 5 1 12 9 15 8 3 14 11 13 18 -2 7 3 12 10 10 6 -1 11 1 10 5 -3
16 22 63 33 63 6 0 9 6 6 14 -5 14 27 67 45 74 5 2 8 10 8 18 0 8 5 14 12 14
6 0 9 3 5 6 -3 3 5 18 18 32 13 14 22 29 19 34 -3 4 0 8 6 8 6 0 8 5 5 10 -3
6 -2 10 2 10 10 0 44 55 38 62 -2 2 8 18 23 35 15 17 40 56 57 87 16 31 33 56
37 56 4 0 8 5 8 11 0 6 12 26 26 45 15 19 23 34 20 34 -4 0 2 10 14 22 11 12
20 26 20 30 0 5 5 6 10 3 6 -3 12 0 15 7 6 16 67 17 78 1z m1508 -26 c17 -15
27 -27 23 -27 -4 0 2 -9 14 -20 12 -12 22 -25 22 -30 0 -5 7 -16 16 -24 14
-14 20 -30 23 -58 1 -4 9 -14 18 -24 10 -9 18 -23 19 -31 2 -9 12 -21 23 -29
11 -8 18 -21 15 -29 -4 -8 -1 -15 6 -15 6 0 9 -4 5 -9 -3 -6 3 -14 12 -20 10
-6 14 -11 9 -11 -5 0 0 -8 10 -17 10 -10 20 -25 22 -33 2 -8 8 -16 13 -18 5
-2 9 -10 9 -17 0 -8 10 -25 23 -38 12 -12 23 -29 25 -37 2 -8 9 -18 15 -22 7
-4 8 -8 3 -8 -6 0 0 -9 12 -20 12 -12 22 -27 22 -35 0 -8 5 -15 10 -15 6 0 10
-7 10 -15 0 -9 6 -18 14 -21 14 -5 41 -60 37 -76 0 -5 3 -8 8 -8 9 0 24 -31
26 -55 2 -20 -17 -65 -25 -60 -5 3 -12 0 -17 -7 -4 -7 -28 -13 -53 -14 -25 0
-64 -3 -87 -6 -24 -3 -43 -2 -43 1 0 6 -65 9 -352 13 -82 2 -148 6 -148 11 0
4 -15 4 -32 1 -56 -11 -82 -11 -100 -2 -12 6 -18 5 -18 -2 0 -6 -5 -8 -12 -3
-17 10 -38 13 -38 4 0 -4 -9 -7 -20 -7 -11 0 -20 5 -20 10 0 5 -3 7 -6 3 -14
-14 -53 47 -49 76 2 9 0 17 -4 17 -4 0 -5 73 -3 163 4 221 6 241 15 248 4 3 9
20 11 37 5 36 24 66 46 70 8 2 21 10 28 19 6 9 12 13 12 9 0 -5 6 -3 13 3 8 6
17 8 20 4 4 -3 7 -1 7 6 0 7 4 10 10 6 8 -5 30 9 65 42 7 7 15 9 19 6 3 -4 6
-1 6 6 0 7 5 9 10 6 6 -3 10 1 10 9 0 14 12 20 33 17 4 0 7 3 7 9 0 6 7 10 15
10 8 0 15 5 15 11 0 5 4 8 8 5 5 -3 21 6 36 19 16 14 33 22 37 19 5 -3 9 0 9
6 0 6 4 9 9 6 5 -3 14 0 19 7 18 21 70 14 103 -16z m-3251 -317 c0 -3 12 -5
27 -4 31 1 83 -48 78 -75 -1 -9 0 -20 4 -26 6 -9 9 -41 12 -107 1 -16 6 -28
11 -28 5 0 7 -4 3 -9 -3 -5 -1 -12 4 -16 5 -3 8 -14 6 -25 -2 -11 0 -20 5 -20
5 0 9 -8 9 -17 1 -41 4 -59 11 -68 4 -5 6 -18 5 -27 -2 -10 1 -18 6 -18 6 0 7
-4 4 -10 -3 -5 -2 -10 2 -10 5 0 10 -10 10 -22 1 -13 7 -24 12 -26 5 -2 8 -9
5 -17 -3 -7 0 -16 5 -20 6 -3 9 -11 6 -16 -4 -5 -2 -9 4 -9 5 0 8 -9 6 -20 -2
-11 2 -26 9 -33 7 -7 12 -20 10 -30 -1 -10 4 -21 11 -23 8 -3 12 -11 9 -19 -3
-7 2 -19 10 -28 8 -8 12 -17 9 -21 -4 -3 0 -6 7 -6 7 0 11 -3 7 -6 -3 -4 4
-25 15 -48 12 -22 22 -43 23 -46 0 -3 10 -16 22 -29 12 -13 20 -27 18 -31 -3
-4 2 -13 10 -20 8 -7 12 -16 9 -21 -3 -5 -1 -9 5 -9 6 0 8 -6 6 -12 -3 -7 13
-33 35 -57 22 -25 40 -50 40 -58 0 -7 14 -27 30 -45 17 -17 30 -37 30 -45 0
-8 3 -12 8 -10 8 4 36 -24 40 -42 1 -7 17 -27 35 -45 51 -53 82 -96 79 -109
-2 -7 -1 -9 3 -5 4 4 17 -4 30 -17 12 -14 25 -22 28 -18 4 3 7 1 7 -5 0 -15
56 -72 64 -65 3 4 6 0 6 -8 0 -8 10 -21 21 -29 12 -8 28 -21 35 -28 8 -7 14
-11 14 -8 0 3 16 -10 37 -29 20 -19 39 -32 43 -30 4 3 18 -9 30 -25 12 -16 27
-27 31 -24 5 3 9 0 9 -6 0 -6 4 -9 9 -5 5 3 13 -4 16 -16 4 -11 9 -18 12 -16
2 3 13 -2 24 -11 11 -9 21 -15 22 -12 1 3 16 -7 32 -22 16 -15 32 -25 37 -22
4 3 8 1 8 -3 0 -5 17 -17 38 -28 20 -11 40 -24 43 -28 3 -5 9 -8 13 -7 12 4
70 -24 90 -42 10 -9 23 -15 28 -12 4 3 8 0 8 -6 0 -6 5 -8 10 -5 6 3 10 1 10
-5 0 -6 5 -8 10 -5 6 3 10 1 10 -5 0 -6 6 -10 13 -9 20 2 57 -12 57 -23 0 -5
5 -6 11 -3 6 4 17 -1 24 -11 8 -11 15 -15 15 -10 0 5 7 3 15 -4 8 -6 18 -9 23
-6 6 3 26 -1 45 -9 19 -8 37 -11 41 -8 3 4 6 1 6 -5 0 -7 3 -11 8 -11 4 1 10
0 15 -1 4 -1 10 -3 15 -5 4 -1 14 -5 22 -8 8 -4 29 -8 45 -11 17 -2 32 -5 35
-7 3 -1 10 -3 15 -4 6 -2 12 -4 15 -5 11 -4 56 -11 78 -12 12 0 22 -3 22 -7 0
-4 10 -8 23 -9 12 -1 41 -3 65 -5 31 -2 53 -12 80 -36 l38 -32 -2 -79 c-1 -44
2 -80 5 -80 11 0 5 -68 -7 -83 -7 -7 -9 -16 -6 -20 3 -3 -3 -14 -14 -25 -11
-11 -23 -18 -26 -14 -3 3 -6 1 -6 -4 0 -6 -20 -10 -45 -10 -25 1 -45 4 -45 8
0 3 -13 5 -30 3 -16 -2 -30 0 -30 4 0 5 -16 8 -35 6 -20 -1 -38 2 -41 6 -2 4
-13 6 -24 4 -11 -2 -20 1 -20 6 0 6 -4 8 -9 4 -5 -3 -12 -1 -15 4 -4 5 -14 8
-24 6 -9 -1 -30 3 -47 10 -16 6 -40 11 -52 10 -13 -1 -23 2 -23 7 0 5 -5 6
-10 3 -5 -3 -10 -2 -10 4 0 5 -10 8 -22 6 -12 -3 -27 0 -35 6 -7 7 -13 9 -13
5 0 -4 -10 0 -23 9 -13 8 -27 12 -30 8 -4 -3 -7 -1 -7 6 0 8 -7 10 -20 6 -11
-3 -20 -2 -20 3 0 5 -7 9 -15 10 -8 1 -22 3 -30 4 -8 1 -15 6 -15 11 0 5 -7 7
-15 3 -8 -3 -15 -1 -15 4 0 5 -6 7 -14 4 -7 -3 -16 2 -20 11 -3 9 -10 13 -16
10 -5 -3 -10 -2 -10 3 0 5 -6 9 -12 10 -23 2 -43 7 -55 15 -7 5 -23 10 -35 12
-12 3 -25 10 -30 17 -4 7 -8 9 -8 3 0 -5 -4 -4 -8 3 -5 7 -22 15 -38 18 -16 3
-33 12 -37 20 -5 8 -12 12 -18 9 -5 -4 -9 -1 -9 5 0 6 -4 8 -10 5 -5 -3 -10
-1 -10 5 0 6 -4 9 -9 6 -5 -3 -12 1 -15 10 -3 8 -10 12 -16 9 -6 -3 -13 1 -16
9 -3 9 -10 13 -15 10 -5 -3 -9 -1 -9 4 0 8 -28 20 -47 20 -3 0 -9 4 -12 9 -3
5 -23 19 -43 32 -21 12 -38 27 -38 32 0 5 -3 8 -7 8 -21 -3 -33 2 -27 12 4 7
1 10 -7 7 -7 -2 -20 4 -29 14 -8 11 -22 20 -30 21 -8 1 -17 7 -19 12 -4 11
-30 31 -46 36 -5 2 -18 12 -27 23 -10 12 -17 18 -18 13 0 -4 -27 20 -60 54
-33 33 -60 58 -60 56 0 -3 -37 31 -82 76 -46 45 -82 85 -81 89 2 4 -9 16 -24
27 -14 12 -22 21 -17 21 5 0 -4 9 -21 20 -16 11 -26 20 -20 20 5 0 -1 7 -13
16 -12 8 -20 19 -17 24 3 5 -4 11 -15 15 -11 4 -18 11 -15 16 4 5 1 9 -4 9 -6
0 -11 7 -11 17 0 9 -3 14 -6 10 -7 -7 -54 58 -54 73 0 6 -3 10 -8 10 -4 0 -16
16 -26 35 -11 19 -24 35 -29 35 -6 0 -7 3 -4 6 4 4 -7 24 -24 45 -17 22 -28
39 -24 39 4 0 2 7 -5 15 -7 8 -10 15 -6 15 3 0 -7 14 -24 31 -16 17 -27 35
-25 40 3 4 -1 16 -10 26 -8 10 -14 20 -13 23 1 3 -11 27 -26 55 -15 27 -30 58
-32 69 -2 11 -9 23 -16 28 -7 4 -9 8 -4 8 5 0 4 6 -1 13 -6 6 -9 20 -8 30 2 9
-1 17 -6 17 -6 0 -7 5 -4 10 3 6 0 13 -9 16 -8 3 -12 12 -9 20 3 8 1 14 -4 14
-5 0 -10 12 -11 27 -1 15 -8 30 -15 35 -6 4 -8 8 -3 8 5 0 2 7 -5 16 -7 9 -14
26 -15 38 -3 41 -13 78 -27 100 -8 11 -13 31 -11 44 2 12 -1 22 -7 22 -5 0 -8
4 -4 9 3 5 1 12 -4 16 -6 3 -8 12 -4 20 3 8 0 15 -5 15 -6 0 -9 10 -7 22 3 12
0 27 -6 34 -5 6 -11 38 -14 69 -2 32 -7 61 -12 64 -5 3 -8 22 -8 41 1 19 -1
40 -4 45 -9 17 -9 55 1 55 4 0 8 4 8 10 0 17 32 48 45 43 7 -2 15 -1 18 4 6 9
227 12 227 3z m4961 -4 c68 16 169 5 169 -18 0 -5 6 -8 14 -8 16 0 29 -27 20
-41 -3 -5 1 -9 8 -9 9 0 9 -3 -2 -10 -8 -5 -11 -10 -6 -10 5 0 4 -6 -1 -12 -6
-7 -9 -23 -8 -35 1 -13 -1 -23 -5 -23 -4 0 -7 -17 -7 -37 -1 -21 -4 -49 -8
-63 -3 -14 -8 -42 -9 -62 -2 -20 -9 -44 -16 -53 -10 -12 -10 -15 1 -16 10 0
11 -2 1 -6 -6 -2 -10 -9 -6 -14 3 -5 0 -9 -6 -9 -7 0 -9 -7 -6 -16 4 -10 -1
-22 -11 -30 -12 -9 -14 -13 -5 -14 8 0 10 -5 5 -12 -4 -7 -8 -16 -9 -20 -1 -5
-2 -9 -4 -10 -2 -4 -7 -24 -15 -62 -3 -16 -11 -39 -18 -50 -12 -22 -14 -28
-16 -50 0 -8 -7 -21 -15 -28 -7 -8 -17 -29 -21 -46 -3 -18 -10 -32 -13 -32 -4
0 -8 -14 -8 -31 -1 -17 -8 -35 -15 -40 -8 -5 -10 -9 -5 -9 5 0 3 -6 -3 -13 -6
-8 -8 -17 -4 -20 3 -4 1 -7 -6 -7 -7 0 -10 -4 -6 -9 3 -6 -3 -14 -12 -20 -10
-6 -13 -11 -8 -11 6 0 4 -4 -2 -8 -7 -4 -14 -17 -16 -29 -1 -12 -8 -28 -15
-35 -6 -8 -9 -17 -6 -21 3 -3 -4 -10 -15 -17 -12 -6 -21 -19 -21 -29 0 -10 -7
-24 -15 -31 -8 -7 -12 -16 -9 -21 3 -5 -2 -12 -10 -15 -9 -3 -13 -10 -10 -15
3 -5 0 -9 -5 -9 -6 0 -11 -7 -11 -16 0 -9 -5 -12 -12 -8 -8 5 -9 2 -5 -9 3
-10 2 -17 -4 -17 -6 0 -7 -5 -4 -10 3 -6 -1 -13 -9 -16 -8 -3 -21 -21 -28 -39
-6 -19 -15 -32 -20 -29 -4 3 -8 1 -8 -5 0 -5 -8 -17 -17 -27 -10 -9 -18 -23
-19 -30 -3 -16 -30 -45 -41 -44 -4 0 -9 -8 -11 -20 -2 -11 -12 -25 -22 -30
-10 -5 -22 -19 -25 -30 -4 -11 -11 -18 -16 -15 -5 4 -9 2 -9 -4 0 -5 -14 -23
-31 -40 -17 -17 -27 -31 -24 -31 4 0 -7 -13 -25 -30 -17 -16 -33 -38 -35 -47
-1 -10 -7 -17 -13 -16 -6 2 -22 -11 -36 -28 -14 -17 -26 -27 -26 -23 0 4 -16
-9 -35 -30 -19 -21 -35 -35 -35 -30 0 4 -14 -7 -31 -24 -17 -18 -36 -32 -41
-32 -5 0 -6 -4 -3 -10 3 -5 -1 -10 -9 -10 -8 0 -32 -16 -53 -35 -21 -20 -55
-45 -75 -57 -21 -12 -38 -25 -38 -30 0 -4 -7 -5 -15 -1 -10 3 -15 0 -13 -8 2
-8 -3 -13 -9 -11 -7 1 -13 -3 -13 -9 0 -5 -4 -8 -9 -5 -4 3 -18 -6 -31 -19
-13 -13 -27 -22 -31 -19 -5 3 -9 -2 -9 -11 0 -9 -4 -14 -9 -10 -5 3 -15 -1
-23 -8 -7 -7 -15 -14 -18 -14 -17 -1 -50 -16 -50 -22 0 -4 -19 -15 -42 -26
-24 -10 -45 -22 -48 -26 -3 -4 -14 -9 -25 -11 -11 -1 -22 -5 -25 -8 -12 -12
-51 -30 -65 -30 -8 0 -15 -4 -15 -10 0 -5 -7 -7 -15 -4 -8 4 -15 1 -15 -6 0
-6 -4 -9 -9 -5 -5 3 -17 -2 -25 -11 -9 -8 -16 -12 -16 -8 0 3 -7 1 -15 -6 -8
-7 -15 -9 -15 -5 0 5 -8 1 -18 -8 -10 -10 -21 -14 -25 -11 -3 3 -12 2 -19 -2
-7 -5 -26 -9 -42 -10 -16 -2 -32 -8 -36 -14 -4 -7 -19 -13 -34 -13 -14 -1 -26
-5 -26 -10 0 -4 -3 -6 -7 -6 -5 1 -10 0 -13 -1 -6 -2 -34 -9 -56 -13 -8 -2
-19 -8 -22 -14 -4 -5 -16 -9 -26 -7 -11 1 -25 0 -30 -4 -6 -4 -22 -8 -36 -8
-14 -1 -25 -3 -25 -4 0 -4 -41 -12 -62 -12 -13 0 -23 -4 -23 -8 0 -5 -8 -7
-17 -5 -10 1 -22 0 -28 -3 -5 -4 -21 -8 -35 -9 -82 -9 -95 -11 -95 -13 0 -1
-10 -4 -22 -5 -13 -1 -23 2 -23 7 0 5 -3 7 -7 5 -9 -5 -36 24 -42 44 -8 29 -7
239 2 239 5 0 7 8 5 18 -6 28 49 69 85 63 4 0 7 3 7 8 0 5 16 7 35 5 19 -1 35
1 35 6 0 5 7 7 15 4 8 -4 15 -2 15 4 0 5 16 8 35 6 19 -1 35 1 35 5 0 5 11 7
25 6 14 -2 25 1 25 6 0 4 7 6 15 3 8 -4 15 -2 15 4 0 6 9 8 20 5 12 -3 20 0
20 7 0 7 7 10 15 6 8 -3 15 -1 15 4 0 5 9 7 20 5 11 -2 20 1 20 6 0 6 4 8 9 4
5 -3 12 -1 16 4 3 6 12 8 20 4 8 -3 15 0 15 7 0 10 3 10 15 0 12 -10 15 -10
15 0 0 7 7 10 15 6 9 -3 15 0 15 10 0 8 4 13 9 9 5 -3 12 -1 16 5 4 6 10 8 15
5 5 -3 16 2 24 11 9 8 16 13 16 9 0 -3 11 2 25 11 14 9 25 14 25 11 0 -3 15 0
33 7 17 7 38 11 45 9 6 -3 12 0 12 6 0 6 5 11 10 11 6 0 23 11 37 24 15 14 30
23 35 20 4 -3 8 -1 8 3 0 5 16 15 35 22 19 7 35 17 35 22 0 6 5 7 10 4 6 -3
10 -1 10 6 0 7 3 9 6 6 4 -4 14 1 23 11 9 10 31 27 49 37 17 11 32 23 32 28 0
4 4 6 8 3 5 -3 19 4 30 15 12 11 22 17 22 14 0 -3 9 3 19 13 38 34 49 41 55
35 3 -4 6 1 6 10 0 8 8 18 19 22 21 6 63 40 57 46 -2 2 2 10 10 17 8 7 14 9
14 5 0 -4 7 3 16 15 8 12 19 20 24 17 5 -3 11 4 15 15 3 11 10 20 15 20 10 0
55 44 108 106 19 21 48 54 65 72 17 17 28 32 24 32 -5 0 8 16 27 36 20 20 33
40 31 45 -3 4 4 13 15 19 11 6 20 17 20 24 0 8 13 28 29 45 15 16 26 33 23 36
-3 3 0 5 7 5 7 0 9 5 6 11 -4 6 2 17 14 25 12 8 21 22 21 30 0 8 5 14 10 14 6
0 10 6 10 14 0 8 7 16 15 19 8 4 12 15 10 27 -2 11 0 20 6 20 5 0 9 9 9 20 0
11 7 23 15 26 8 4 15 12 15 20 0 8 5 14 11 14 5 0 7 5 4 10 -3 6 -2 10 3 10 5
0 9 6 10 13 3 40 7 57 13 57 6 0 14 22 17 43 0 5 8 14 18 21 9 7 14 18 10 24
-4 7 -2 12 4 12 7 0 10 7 7 15 -4 8 -2 17 4 20 5 4 7 11 4 16 -4 5 -1 9 6 9 6
0 9 8 6 20 -3 11 -1 23 4 26 5 3 7 10 4 15 -4 5 -2 9 4 9 5 0 8 9 6 20 -2 11
1 20 7 20 5 0 8 7 4 15 -3 8 -1 15 5 15 6 0 8 9 4 19 -3 11 -1 22 5 26 6 3 8
11 5 16 -4 5 -1 9 5 9 6 0 9 4 5 9 -3 5 -1 12 4 16 5 3 8 14 6 25 -2 11 1 22
6 25 5 4 7 11 4 16 -4 5 -2 9 4 9 5 0 8 18 7 40 -2 22 1 40 5 40 4 0 6 9 4 20
-2 11 0 22 5 25 4 3 7 16 5 30 -1 14 2 25 7 25 5 0 7 4 4 8 -7 12 25 37 54 40
14 1 31 3 38 4 6 1 12 5 12 10 0 5 8 4 19 -1 10 -6 29 -8 42 -5z m-3031 -1006
c0 -9 42 -6 58 3 7 5 12 3 13 -5 0 -10 2 -10 6 0 2 6 10 9 16 5 15 -9 117 -11
117 -3 0 4 20 4 45 0 25 -4 45 -3 45 1 0 4 14 4 30 -1 20 -6 30 -5 30 2 0 7 5
7 13 1 10 -8 312 -11 320 -3 6 6 105 6 129 -1 15 -4 30 -4 32 0 4 6 270 5 311
-2 37 -6 46 -16 35 -38 -6 -11 -16 -17 -21 -13 -6 3 -9 -2 -7 -12 2 -13 -2
-18 -15 -16 -9 2 -20 -4 -23 -12 -3 -9 -10 -13 -15 -11 -4 3 -17 -3 -28 -14
-11 -11 -22 -17 -25 -13 -3 3 -6 1 -6 -5 0 -10 -49 -38 -63 -35 -4 1 -16 -6
-27 -16 -11 -9 -29 -24 -39 -34 -11 -9 -22 -14 -25 -11 -3 4 -6 1 -6 -5 0 -7
-3 -11 -7 -11 -5 1 -11 0 -15 -1 -5 -1 -11 -3 -15 -5 -26 -7 -42 -18 -38 -26
3 -5 -6 -11 -20 -15 -14 -3 -25 -10 -25 -15 0 -5 -9 -9 -20 -9 -11 0 -23 -7
-26 -15 -4 -8 -10 -12 -15 -9 -5 3 -9 0 -9 -6 0 -6 -4 -8 -10 -5 -5 3 -10 2
-10 -4 0 -6 -11 -13 -25 -17 -14 -3 -25 -10 -25 -16 0 -5 -4 -6 -10 -3 -5 3
-10 1 -10 -4 0 -6 -3 -10 -7 -9 -5 1 -21 -5 -38 -13 -28 -14 -84 -16 -131 -6
-28 7 -64 29 -64 40 0 5 -6 7 -14 4 -8 -3 -17 1 -20 9 -3 9 -10 13 -15 10 -5
-3 -11 1 -15 9 -3 8 -12 15 -21 15 -8 0 -15 5 -15 11 0 5 -4 7 -10 4 -5 -3
-10 -1 -10 4 0 6 -7 11 -16 11 -18 0 -46 25 -37 33 3 4 -4 5 -16 2 -13 -2 -25
3 -31 16 -6 11 -15 17 -20 14 -5 -3 -13 3 -19 12 -6 10 -11 14 -11 8 0 -5 -4
-4 -8 3 -5 7 -19 14 -32 17 -12 2 -29 13 -36 24 -8 10 -21 18 -30 17 -9 -1
-30 10 -47 25 -17 16 -34 26 -38 23 -4 -2 -9 0 -11 5 -1 5 -10 11 -18 13 -21
5 -39 22 -32 32 3 5 -2 7 -11 3 -11 -4 -20 1 -27 13 -13 25 -13 30 4 24 7 -3
16 2 20 11 3 9 10 14 15 10 5 -3 12 -2 14 3 6 9 127 11 127 2z"/>
<path d="M4268 7413 c7 -3 16 -2 19 1 4 3 -2 6 -13 5 -11 0 -14 -3 -6 -6z"/>
<path d="M4232 7379 c-7 -11 -17 -17 -22 -14 -6 4 -13 -1 -16 -9 -3 -8 -15
-18 -26 -22 -15 -4 -17 -8 -8 -14 9 -6 8 -11 -7 -19 -11 -5 -23 -8 -26 -5 -3
3 -10 -4 -17 -15 -6 -12 -16 -18 -22 -15 -7 5 -9 1 -5 -9 3 -10 2 -17 -4 -17
-6 0 -8 -4 -5 -9 4 -5 2 -11 -3 -13 -5 -1 -11 -9 -13 -17 -5 -22 -32 -48 -43
-43 -5 3 -7 1 -2 -3 4 -5 0 -17 -10 -27 -9 -10 -13 -18 -10 -18 3 0 0 -15 -8
-34 -8 -18 -11 -36 -8 -40 4 -3 1 -6 -6 -6 -7 0 -10 -4 -6 -9 3 -5 1 -12 -4
-15 -5 -3 -7 -19 -6 -35 1 -18 -3 -32 -12 -35 -10 -4 -11 -10 -4 -25 6 -10 7
-21 4 -25 -9 -9 -12 -228 -3 -241 4 -5 6 -23 5 -40 0 -16 3 -35 7 -41 5 -7 11
-22 13 -35 3 -12 8 -25 12 -28 8 -6 15 -27 16 -47 0 -6 6 -11 14 -11 7 0 9 5
5 11 -4 6 -7 37 -7 68 0 31 -2 55 -6 52 -4 -2 -9 3 -13 11 -3 8 -2 15 2 15 5
0 8 18 8 40 0 22 -3 40 -7 40 -4 0 -5 19 -2 43 2 23 6 60 7 82 2 22 6 48 10
57 4 9 5 22 1 28 -3 5 -2 10 3 10 5 0 10 17 10 38 2 58 5 72 14 72 5 0 6 5 3
10 -3 6 -2 10 3 10 5 0 9 6 9 13 1 22 8 41 21 55 6 7 12 20 12 28 0 8 5 14 11
14 6 0 9 5 7 12 -3 7 3 20 11 30 9 10 14 20 12 21 -3 1 10 18 28 37 56 60 61
66 61 78 0 7 7 12 16 12 8 0 12 5 9 10 -3 6 -1 10 5 10 6 0 9 4 6 9 -4 5 -2
11 4 13 5 1 6 8 2 15 -6 9 -11 7 -20 -8z"/>
<path d="M4380 5925 c0 -10 29 -24 34 -17 3 6 -3 12 -14 15 -11 3 -20 4 -20 2z"/>
<path d="M4450 5875 c0 -9 5 -15 11 -13 6 2 11 8 11 13 0 5 -5 11 -11 13 -6 2
-11 -4 -11 -13z"/>
<path d="M8201 4584 c0 -11 3 -14 6 -6 3 7 2 16 -1 19 -3 4 -6 -2 -5 -13z"/>
<path d="M8189 4358 c-5 -18 -6 -38 -1 -34 7 8 12 36 6 36 -2 0 -4 -1 -5 -2z"/>
<path d="M8123 4005 c0 -8 4 -12 9 -9 5 3 6 10 3 15 -9 13 -12 11 -12 -6z"/>
<path d="M7895 3290 c3 -5 11 -10 16 -10 6 0 7 5 4 10 -3 6 -11 10 -16 10 -6
0 -7 -4 -4 -10z"/>
<path d="M1760 3011 c0 -6 4 -13 10 -16 6 -3 7 1 4 9 -7 18 -14 21 -14 7z"/>
<path d="M7490 2585 c0 -8 2 -15 4 -15 2 0 6 7 10 15 3 8 1 15 -4 15 -6 0 -10
-7 -10 -15z"/>
<path d="M3406 1542 c-2 -4 4 -8 14 -8 10 0 16 4 14 8 -3 4 -9 8 -14 8 -5 0
-11 -4 -14 -8z"/>
<path d="M3648 1433 c7 -3 16 -2 19 1 4 3 -2 6 -13 5 -11 0 -14 -3 -6 -6z"/>
<path d="M3948 1353 c7 -3 16 -2 19 1 4 3 -2 6 -13 5 -11 0 -14 -3 -6 -6z"/>
<path d="M5020 1269 c0 -5 5 -7 10 -4 6 3 10 8 10 11 0 2 -4 4 -10 4 -5 0 -10
-5 -10 -11z"/>
</g>
</svg>
